<svg xmlns="http://www.w3.org/2000/svg" version="1.0" viewBox="0 0 2048 2048"><path d="M985 604.5c-15.4 1.8-31.8 4.4-44 7.1-3.6.8-7.6 1.7-9 2s-4.7 1.1-7.5 1.9c-2.7.8-9.9 2.9-16 4.6-6 1.7-11.4 3.5-12 4-.5.5-1.5.9-2.3.9s-8.4 2.7-16.9 6.1c-28.7 11.3-59.2 28.1-83 45.6-5.4 3.9-10.7 8-11.8 9s-3.3 2.9-5 4.1c-15.6 12.1-45.4 42.2-59.6 60.3-2.7 3.5-6.2 8-7.8 9.9-5.1 6.4-19.7 28.4-27 40.8-8 13.5-20.1 38.1-25 51-5.9 15.5-14.1 41.4-16.5 52.2-2.6 12-3.8 17.5-4.2 20.5-.5 3.5-1.6 9.4-2.1 11.5-.7 2.9-3.3 25.5-4.1 34.5-.9 11.9-.9 61.1 0 70 .4 3.8 1 9.7 1.3 13s1.3 10.3 2.1 15.5 1.7 11.1 2 13 .8 4.2 1.1 5 .7 2.8 1 4.5c.2 1.6 1.7 8.2 3.3 14.5 19 75 62.4 145.7 121.5 197.8 15.4 13.5 41.3 33.2 43.9 33.2.2 0 .4-2.9.5-6.5.2-7.9.8-12.1 2.7-18.3.7-2.6 1.4-5.2 1.4-5.8s-5.1-5-11.2-9.9c-46.4-36.6-83.1-83.9-109.2-140.5-10.6-23.1-24.6-70.7-27.1-92-.3-3-1.1-8.7-1.6-12.5-2-14.5-2.4-21.7-2.4-46 .1-29.8.3-37.9 1.7-46.5 1-6.9 1.5-10.2 2.3-16.3 1.3-10.1 8.1-38.7 12.1-51.7 11.7-37.3 28.1-70.2 52.4-105.5 8-11.7 25.4-31.9 39-45.5 29-28.9 58-50 93.1-67.6 51.6-25.8 102.2-37.9 161.9-38.6 12.5-.2 41 1.5 47.4 2.8 1.2.2 4.1.6 6.6.9s7.2 1 10.5 1.6 6.7 1.2 7.5 1.3c.8.2 2.6.6 4 .9 1.4.4 3.6.9 5 1.1 5.8 1.1 29.2 7.8 38.7 11 45.1 15.6 85 38.5 120 69 11.7 10.2 30.6 29.2 39.3 39.6 3 3.6 5.7 6.7 6 7 1.3 1.2 17 23 21.2 29.5 21.8 33.6 41.6 79.2 49.3 114 5.1 23 5.8 26.8 8.1 44.5 2.1 16.9 2.4 21.2 2.5 45.5 0 25.2-.9 37.4-4.7 61.5-1.5 9.5-6.7 33.8-8.5 39.5-5.9 19.2-8.3 26.5-9.4 29-.7 1.6-2.5 6-3.8 9.6-1.4 3.6-3.7 9.2-5.2 12.5-1.5 3.2-3.4 7.7-4.3 9.9-2.9 7.3-17.3 32.8-25.1 44.5-4.2 6.3-8 12.2-8.6 13.1-.5.9-2.9 4.1-5.2 7-2.3 3-6.1 7.9-8.4 10.9-6.6 8.6-27.2 30.4-37.3 39.4-17.2 15.4-37.7 31.9-44.6 35.7-1.2.7-1.1 1.7.7 7.1 2.8 8.2 3.4 11.5 3.4 18.2 0 3.1.4 5.8.8 6 1.5 1 23.1-13.9 40.3-27.6 46-36.9 86-87 110.3-138.3 7.2-15.1 16-36.9 20.5-50.5 5.2-16.1 11.4-40.8 12.3-49.5.4-2.8 1.5-9.5 3.7-22 2.2-12.3 3.2-34.6 2.7-61.6-.3-15.6-.7-29.3-1-30.4-.2-1.1-.8-5.6-1.1-10-.7-7.4-1.6-14.3-3.1-22-.3-1.7-1-5.5-1.4-8.5-.5-3-1.2-6.6-1.5-8-6.5-28.4-8.4-35.1-15.8-55.5-19.4-54-48.6-100.7-88.3-141.4-19.4-19.8-43.3-39.6-63.5-52.6-4.1-2.7-9.3-6-11.5-7.5-12.4-8.3-39.9-22.1-58.5-29.5-8.8-3.4-29.2-10.5-31.5-10.9-.5-.1-1.4-.4-2-.7-.5-.4-3.5-1.2-6.5-1.9s-8-2-11-2.8c-18-5.1-44.2-9.5-64.5-11-17.9-1.4-59.8-1.2-72.5.3"/><path d="M978.7 698.6c-11.2 2.7-21.5 8.5-29.6 16.5-4.1 4.2-12.1 15.2-12.1 16.8 0 .4 3.5 1.2 7.8 1.8 4.3.7 10.4 2.3 13.4 3.6l5.6 2.5 2.4-3.3c5.3-7.5 17.2-13.5 26.7-13.5 5.3 0 14.5 2.6 18.9 5.4 4.8 3 13.7 12.7 16.3 17.7 1.1 2.2 2.3 3.9 2.7 3.9s1.5-1.3 2.5-2.9c.9-1.6 4.6-5.9 8.2-9.6 6.3-6.6 6.4-6.8 5-9.4-2.7-5.3-10.5-13.9-16.7-18.6-11-8.3-20.1-11.4-34.8-12-6.8-.2-12.5.2-16.3 1.1m96.4 33c-7.2 1.9-15.6 6.5-21.8 12-5.1 4.4-13.3 15.5-13.3 17.9 0 .6 2.6 1.7 5.8 2.4 3.1.7 7.7 2.2 10.1 3.2s4.7 1.9 5.2 1.9c.4 0 2.4-1.7 4.4-3.8 5.4-5.9 13.6-9.6 22-10 3.9-.2 8.9.1 11.1.7 9.6 2.6 21.1 13.5 25 23.7 1.5 3.8 2.1 4.5 3.8 3.9 1.2-.3 5.7-1.5 10.1-2.6s8.5-2.2 9.2-2.4c1.5-.5-1-8.1-5.7-17.5-4.8-9.4-16.3-20.6-26-25.2-4.1-2-9.9-4.1-12.8-4.7-7.2-1.5-20.6-1.3-27.1.5M922.3 752c-11.8 3.5-22.4 11-29.6 20.8-3.7 5-9.1 17.8-8.1 19.3.3.5 2 .9 3.7.9 1.8 0 6.4 1.2 10.2 2.5 3.9 1.4 7.1 2.5 7.1 2.5.1 0 1.6-2.9 3.3-6.5 2.5-5 4.5-7.5 8.7-10.5 16-11.9 36.4-7.6 48.4 10.1 2.2 3.2 4 6.3 4 6.8 0 2 1.8 1.1 3.5-1.7.9-1.5 4.4-5.3 7.8-8.4l6.2-5.7-1.8-3.4c-5.9-11-17.7-21.2-29.5-25.8-8-3.1-25.1-3.6-33.9-.9m104.4 30.2c-20.2 2.7-36 15.9-41.6 34.6-2.2 7.1-2 7.8 2.9 14.2 1.5 1.9 3.9 5.9 5.4 8.8s3 5.2 3.4 5 2.4-1 4.5-1.8l3.7-1.4v-6.8c0-4.4.7-8.7 2.1-12.3 5.1-13.7 24.2-20.7 38.3-14 6.2 2.9 13.7 10.1 16.1 15.6 1.2 2.5 2.2 3.6 2.9 3 2.5-1.9 10.4-5.9 14.1-7 2.2-.7 4.6-1.4 5.3-1.7 1-.3.5-2-1.9-6.4-10.6-20-34.1-32.7-55.2-29.8m110 13.9c-3.4.8-8.2 2.6-10.7 3.8-5.1 2.7-14.7 11.5-17.3 15.9l-1.7 3 3.7 1.2c2.1.7 6.9 2.8 10.7 4.8 4.6 2.4 7.2 3.3 8.1 2.6.6-.5 3.1-2.3 5.4-4.1 5.1-3.9 13.2-5.7 20.4-4.8 6.1.9 9.4 2.4 16.4 7.6 6.1 4.6 11.8 14.8 12.8 23.2.9 7.2-.9 16.2-4.5 22l-3 4.8 4.6 1.9c2.5 1.1 4.9 2 5.3 2s2.8 1.3 5.4 3c2.6 1.6 5 3 5.2 3s2-2.8 3.9-6.3c5.2-9.3 7-16.6 7-28.2 0-16.5-4.8-28.2-16.4-40-6.5-6.7-12.5-10.6-21.5-14.1-5.9-2.3-8.6-2.8-17.3-2.8-6.2-.1-12.7.5-16.5 1.5m-272.7-.4c-26.5 3.2-47.1 20.8-53.5 45.6-2 8.2-1.5 21.6 1.3 29.1 1.2 3.3 2.6 6.4 3.1 6.9.6.6 2.9-.2 6-2.2 2.8-1.7 5.3-3.1 5.5-3.1.3 0 2.4-.9 4.9-1.9l4.4-1.9-1.5-5.9c-1.2-4.8-1.2-6.9-.3-12.3 3.2-17.1 16.2-29.3 32.8-30.7l6.1-.6-1.9-4.4c-1-2.5-2.2-7.6-2.5-11.4-.4-3.8-1-7.1-1.3-7.2-.3-.2-1.7-.2-3.1 0m52.5 22.7c-13.8 3.6-23 9.3-30.2 18.8-4.1 5.3-10.3 17.4-10.3 20.1 0 .9 2.2 1.9 5.8 2.7 3.1.7 8 2.3 10.7 3.6l5 2.3 3.3-6.5c3.7-7.4 7.6-11.4 14.6-15 13.4-7.1 31-2.1 40.6 11.4 2.2 3.1 4.5 7.3 5.2 9.4 1.3 4.5 2 4.7 4.4 1 .9-1.5 4.5-5.5 7.8-9l6-6.3-2.9-5.7c-5.7-10.8-19.4-21.8-32.2-25.7-6.9-2.2-21.7-2.7-27.8-1.1m170.5 18.7c-2.5.5-6.5 1.6-9 2.5-5.2 1.9-15 8.2-15 9.5 0 .5 2.2 3 4.8 5.6 2.6 2.7 6.2 6.6 7.9 8.8 2.8 3.6 3.2 3.8 4.7 2.2 2.3-2.2 10.9-4.7 16.6-4.7 13.9 0 27.3 12.3 29.5 27.1.4 2.4.8 4.6 1 4.9.9 1.5-3 13.9-5.9 18.4-5 7.9-11.3 12.5-21.1 15.6-2.2.7-4.4 1.6-4.8 2-.5.4 3.1 3.3 7.8 6.5 4.8 3.1 8.9 6.4 9.2 7.1.7 2 2.7 1.7 8.3-1.1 10.2-5.2 15.1-9.4 20.8-18 6.3-9.5 8-15 8.8-27.6.7-11.4-.7-18.3-6.2-29.1-10.5-20.8-35.7-33.9-57.4-29.7"/><path d="M1225 857.9c0 1.7-.9 6.3-1.9 10.1l-2 6.9 5.4 3.1c12.2 7 21.4 22.8 20.2 34.6-1.6 15.6-13.9 28.5-37.9 39.8-15.8 7.5-46.4 17.1-61 19.2-1.8.3-9.1 1.6-16.3 2.9-13.8 2.5-26.6 4.2-38 5.1-3.8.3-8 .7-9.2.9s-15.5.9-31.8 1.6c-33.9 1.4-73.7.3-107.8-3.1-22.5-2.2-22.3-2.2-40.7-5.5-7.4-1.3-15-2.7-16.9-3s-3.7-.7-4-.9-2.3-.7-4.3-1c-5.8-.9-25.1-6.3-36.8-10.3-42.7-14.5-61.6-31-54.6-47.8 1.9-4.4 8.6-11.6 13.1-14.1 2.3-1.2 3.4-2.4 3.1-3.4-3.6-11.3-6.3-18-7.4-18-4.1 0-18.7 10.3-25.1 17.8-2.3 2.6-5.8 7.8-7.8 11.7-3.2 6.1-3.7 8.1-4.1 15.5-.5 10.4 1.3 17.4 6.7 25.7 25.8 39.6 115.4 66.3 235.5 70.2 51.3 1.7 95.3-1 138.1-8.4 44.5-7.7 81.9-21.6 105-38.9 20.5-15.5 29.9-31.9 29.9-52.6.1-14.2-4.3-25.9-14.3-38.5-7.6-9.5-22.9-20-32-22-3-.6-3.1-.5-3.1 2.4"/><path d="M1009.8 857.4c-12.3 2.8-23.8 10.8-31 22-4.1 6.3-4.7 8.6-2.4 8.6.8 0 5 1.8 9.2 4 8.7 4.5 10 4.8 10.8 2.2 1.8-5.6 14.9-13.6 23-14.1 9.2-.5 21.4 5.7 27 13.8 8 11.5 7.4 28.7-1.4 40.9l-2.9 4 9.5 5.6c5.1 3.1 9.6 5.6 9.8 5.6.3 0 2.5-3 4.9-6.8 6.4-9.5 9-17.7 9.3-28.7.3-12.1-.8-17.4-5.7-27.4-11.3-23-35.7-35-60.1-29.7M858 875.7c-4.6.8-13.4 4.4-18.1 7.4-5.8 3.7-13.7 11.9-17.2 18-4.9 8.3-8.6 28.4-5.4 29.3.6.2 5.3 1.7 10.4 3.4 5.1 1.6 9.4 2.7 9.7 2.4.4-.3.6-2.4.6-4.6.1-13.2 7.7-25.4 19.4-31 4.2-2.1 6.4-2.4 12.6-2.2 8.9.3 15.2 3.1 21.8 9.7l4.3 4.2 3.6-4.3c2-2.3 5.8-5.9 8.5-8l4.8-3.8-6.9-6.4c-7.1-6.6-16.6-12-24.2-13.7-4.3-1-18.9-1.3-23.9-.4m310 18.6c-.1.1-.2 3.8-.4 8.2s-.7 9.2-1.1 10.7c-.6 2.3-.4 2.8 1 2.8 2.8 0 10.3 5 13.5 9 3.1 3.9 8.3 14.4 8.3 16.7 0 1.8 0 1.8 10.5-2.3 10.3-4.1 10.5-4.3 7.5-13-3.8-11.4-14.7-23.7-24.9-28-3.4-1.5-14.3-4.5-14.4-4.1m-226.7 5.1c-15.9 4-30.9 16.8-36.8 31.4-2.3 5.7-5.1 19.9-4.1 20.9.6.6 17.6 4.3 19.7 4.3 1.2 0 1.9-1.2 2.4-4.7 1.8-12.2 8.6-22.2 18-26.5 7.6-3.5 18.2-3.2 25.3.7 2.9 1.6 6.7 4.4 8.3 6.2 4.4 5.1 8.5 14.1 9.2 20.2.4 3 1.1 5.9 1.6 6.4.7.7 4.5.7 10.8.1l9.8-.9-.3-7.4c-.9-21.7-15.2-41.7-35-49.1-7.2-2.7-21.5-3.5-28.9-1.6m-159.5 95.3c-12.5 21.1-18.5 33.7-24.9 52.2-9.9 29.2-13.4 63.5-9.3 93.1 6.8 49.3 32.6 96.3 77.5 141.3 7.5 7.5 8.5 15.8 4.2 34.5-3 13.2-3.4 23.2-1 27.7 2 4 7.5 9.1 11 10.4 1.6.6 5.3 1.1 8.4 1.1 9 0 18.5-5.2 29.2-15.8 4.7-4.8 10.1-10.6 11.8-12.9 3.1-3.9 3.4-4.1 7-3.3 19.3 4.3 70.8 5.7 94.8 2.6 32.7-4.3 56.9-10.9 84.5-23.1 7.9-3.5 20.2-9.8 22.5-11.5.6-.5 3.3-2 6-3.5 20.7-11.5 47.9-35.5 66.7-59 24.7-30.9 39.7-69.1 42.4-108l.6-9-5.5-8.8c-10-15.8-14.5-32.7-13.4-50 .6-8.9 3.5-22.2 5.8-26.1 1-1.7.8-1.8-1.3-1.2-1.2.4-3.4.9-4.8 1.2-2.9.6-10.5 2.3-13.5 3.1-4.5 1.1-30.6 5.3-37 5.9-9 .9-25.2 2.4-30.7 2.9-3.7.3-7.7.8-9 1.1-4.6 1-86.8.6-104.3-.5-23.1-1.5-51-4.2-68.5-6.6-1.9-.3-5.1-.7-7-1-6.8-.8-33.7-6.4-46-9.5-6.9-1.8-13.6-3.4-14.9-3.6-1.3-.3-3.4-1-4.5-1.6-1.2-.6-2.2-1-2.4-.9-.5.5-22.7-7.2-33.7-11.6-6-2.4-16.6-7.3-23.4-10.9-6.8-3.5-12.4-6.4-12.5-6.4s-2.2 3.5-4.8 7.7m453.5 3.7c-9.8 9.4-9.8 9.4-7.1 10.4 13.9 5.4 28.7 15.1 39.3 25.7 10.4 10.4 11.6 11.8 15.9 20.6 6.4 12.9 6.7 25.1 1 32.6-3.8 5-7.8 6.7-16 6.7-6 0-8.1-.4-13.8-3.3-8-3.9-16.7-12-22.4-21-4.5-6.9-8.2-15.8-8.2-19.6 0-4-1.7-2.9-4.4 2.7-4.2 8.8-5 14.7-3.2 23.1 2.2 9.8 6.4 16.8 15.6 25.7 13 12.8 25.5 18.1 41.8 17.7 8.7-.2 10.4-.5 16.4-3.5 16.5-8.1 25.8-26.6 23.1-45.9-1.9-13.1-3-16.6-8.4-27.4-7.6-15.2-19.3-28.4-37-41.6-6.8-5.1-19.6-12.3-21.8-12.3-.5 0-5.3 4.2-10.8 9.4m55.3 153.3c-.3.3-.6 1.3-.6 2.1 0 5.4-21.1 52.4-29.5 65.8-10.3 16.3-19.1 28.7-25.9 36.4-5.9 6.8-19.6 20.8-24.4 25l-4.3 3.8 1.7 6.1c1 3.4 2.2 6.1 2.7 6.1 1.4 0 13-10.2 22.1-19.5 25.3-25.8 44.9-61.5 55.2-100.5 4.4-16.6 5.8-28.1 3-25.3M1139 1323.9c-4.1 1.4-7.7 2.7-7.9 2.8s1.7 2.8 4.3 6.1c12 15.6 25.2 22.8 45.2 24.8 4.3.4 7.4.2 7.7-.3.4-.5-1.7-2-4.6-3.3-12.2-5.4-29.3-20-34.2-29.3-1.1-2-2.2-3.6-2.5-3.6-.3.1-3.9 1.3-8 2.8m-252 30.7c-5.1 5.2-14.7 12.4-20.2 15-2.1 1-3.8 2-3.8 2.3 0 .9 24.3 11.1 37.6 15.7 12 4.2 35.5 10.8 42.4 11.8 1.9.3 4.6.8 6 1.1 9.2 1.8 13 2.5 16.5 2.9 2.2.3 9.9 1.3 17 2.2 19.2 2.4 68.1 2.5 87.5.1 19-2.3 41.1-6.8 58.3-11.8 13.2-3.8 16.9-5.2 34.7-12.9 4.1-1.7 8.3-3.4 9.3-3.7 3.2-1 1.7-1.9-4.9-3.2-3.6-.6-7.3-1.6-8.2-2-.9-.5-6.5-3.2-12.4-6.1-6-2.9-10.8-5.6-10.8-6.1 0-1.1-4.4-1.2-5.4-.2-.7.8-3.6 1.6-19.1 5.9-14.6 4.1-14.8 4.1-26.5 5.8-19.2 2.9-25.9 3.7-34.5 4.4-21.4 1.5-60.2.1-77-2.8-3.3-.6-10.9-1.9-17-2.9-6-1-11.9-2.1-13-2.4-25.6-6.8-44.1-12.9-48.9-16.3-1.1-.7-2.3-1.4-2.6-1.4s-2.6 2.1-5 4.6"/></svg>