<?xml version="1.0" encoding="UTF-8" standalone="no"?>
<svg
   version="1.0"
   viewBox="0 0 2048 2048"
   id="svg4"
   sodipodi:docname="logo.svg"
   inkscape:version="1.4 (e7c3feb1, 2024-10-09)"
   xmlns:inkscape="http://www.inkscape.org/namespaces/inkscape"
   xmlns:sodipodi="http://sodipodi.sourceforge.net/DTD/sodipodi-0.dtd"
   xmlns="http://www.w3.org/2000/svg"
   xmlns:svg="http://www.w3.org/2000/svg">
  <defs
     id="defs4" />
  <sodipodi:namedview
     id="namedview4"
     pagecolor="#ffffff"
     bordercolor="#000000"
     borderopacity="0.25"
     inkscape:showpageshadow="2"
     inkscape:pageopacity="0.0"
     inkscape:pagecheckerboard="0"
     inkscape:deskcolor="#d1d1d1"
     inkscape:zoom="0.14868831"
     inkscape:cx="1123.1549"
     inkscape:cy="1725.0852"
     inkscape:window-width="1104"
     inkscape:window-height="996"
     inkscape:window-x="7"
     inkscape:window-y="44"
     inkscape:window-maximized="0"
     inkscape:current-layer="svg4" />
  <g
     id="g4"
     transform="matrix(1.2514608,0,0,1.2514608,-258.3415,-234.15939)"
     style="stroke-width:0.999678;stroke-dasharray:none">
    <path
       d="m 945.32429,203.64739 c -30.8,3.6 -63.6,8.8 -88,14.2 -7.2,1.6 -15.2,3.4 -18,4 -2.8,0.6 -9.4,2.2 -15,3.8 -5.4,1.6 -19.8,5.8 -32,9.2 -12,3.4 -22.8,7 -24,8 -1,1 -3,1.8 -4.6,1.8 -1.6,0 -16.8,5.4 -33.8,12.2 -57.4,22.6 -118.4,56.2 -166,91.2 -10.8,7.8 -21.4,16 -23.6,18 -2.2,2 -6.6,5.8 -10,8.2 -31.2,24.2 -90.8,84.4 -119.2,120.6 -5.4,7 -12.4,16 -15.6,19.8 -10.2,12.8 -39.4,56.8 -54,81.6 -16,27 -40.2,76.2 -50,102 -11.8,31 -28.2,82.8 -33,104.4 -5.2,24 -7.6,35 -8.4,41 -1,7 -3.2,18.8 -4.2,23 -1.4,5.8 -6.6,51 -8.2,69 -1.8,23.8 -1.8,122.20001 0,140.00001 0.8,7.6 2,19.4 2.6,26 0.6,6.6 2.6,20.6 4.2,31 1.6,10.4 3.4,22.2 4,26 0.6,3.8 1.6,8.4 2.2,10 0.6,1.6 1.4,5.6 2,9 0.4,3.2 3.4,16.4 6.6,29 38,150 124.8,291.4 243,395.6 30.8,27 82.6,66.4 87.8,66.4 0.4,0 0.8,-5.8 1,-13 0.4,-15.8 1.6,-24.2 5.4,-36.6 1.4,-5.2 2.8,-10.4 2.8,-11.6 0,-1.2 -10.2,-10 -22.4,-19.8 -92.8,-73.2 -166.2,-167.8 -218.4,-281 -21.2,-46.2 -49.2,-141.4 -54.2,-184 -0.6,-6 -2.2,-17.4 -3.2,-25 -4,-29 -4.8,-43.4 -4.8,-92 0.2,-59.60001 0.6,-75.80001 3.4,-93.00001 2,-13.8 3,-20.4 4.6,-32.6 2.6,-20.2 16.2,-77.4 24.2,-103.4 23.4,-74.6 56.2,-140.4 104.8,-211 16,-23.4 50.8,-63.8 78,-91 58,-57.8 116,-100 186.2,-135.2 103.2,-51.6 204.4,-75.8 323.80001,-77.2 25,-0.4 82,3 94.8,5.6 2.4,0.4 8.2,1.2 13.2,1.8 5,0.6 14.4,2 21,3.2 6.6,1.2 13.4,2.4 15,2.6 1.6,0.4 5.2,1.2 8,1.8 2.8,0.8 7.2,1.8 10,2.2 11.6,2.2 58.4,15.6 77.4,22 90.2,31.2 170,77 240,138 23.4,20.4 61.2,58.4 78.6,79.2 6,7.2 11.4,13.4 12,14 2.6,2.4 34,46 42.4,59 43.6,67.2 83.2,158.4 98.6,228 10.2,46 11.6,53.6 16.2,89 4.2,33.8 4.8,42.4 5,91 0,50.40001 -1.8,74.80001 -9.4,123.00001 -3,19 -13.4,67.6 -17,79 -11.8,38.4 -16.6,53 -18.8,58 -1.4,3.2 -5,12 -7.6,19.2 -2.8,7.2 -7.4,18.4 -10.4,25 -3,6.4 -6.8,15.4 -8.6,19.8 -5.8,14.6 -34.6,65.6 -50.2,89 -8.4,12.6 -16,24.4 -17.2,26.2 -1,1.8 -5.8,8.2 -10.4,14 -4.6,6 -12.2,15.8 -16.8,21.8 -13.2,17.2 -54.4,60.8 -74.6,78.8 -34.4,30.8 -75.4,63.8 -89.2,71.4 -2.4,1.4 -2.2,3.4 1.4,14.2 5.6,16.4 6.8,23 6.8,36.4 0,6.2 0.8,11.6 1.6,12 3,2 46.2,-27.8 80.6,-55.2 92,-73.8 172,-174 220.6,-276.6 14.4,-30.2 32,-73.8 41,-101 10.4,-32.2 22.8,-81.6 24.6,-99 0.8,-5.6 3,-19 7.4,-44 4.4,-24.6 6.4,-69.2 5.4,-123.20001 -0.6,-31.2 -1.4,-58.6 -2,-60.8 -0.4,-2.2 -1.6,-11.2 -2.2,-20 -1.4,-14.8 -3.2,-28.6 -6.2,-44 -0.6,-3.4 -2,-11 -2.8,-17 -1,-6 -2.4,-13.2 -3,-16 -13,-56.8 -16.8,-70.2 -31.6,-111 -38.8,-108 -97.2,-201.4 -176.6,-282.8 -38.8,-39.6 -86.6,-79.2 -127,-105.2 -8.2,-5.4 -18.6,-12 -23,-15 -24.8,-16.6 -79.8,-44.2 -117,-59 -17.6,-6.8 -58.4,-21 -63,-21.8 -1,-0.2 -2.8,-0.8 -4,-1.4 -1,-0.8 -7,-2.4 -13,-3.8 -6,-1.4 -16,-4 -22,-5.6 -36,-10.2 -88.4,-19 -129,-22 -35.8,-2.8 -119.60001,-2.4 -145.00001,0.6"
       id="path1"
       style="stroke-width:0.999678;stroke-dasharray:none" />
    <path
       d="m 932.72429,391.84739 c -22.4,5.4 -43,17 -59.2,33 -8.2,8.4 -24.2,30.4 -24.2,33.6 0,0.8 7,2.4 15.6,3.6 8.6,1.4 20.8,4.6 26.8,7.2 l 11.2,5 4.8,-6.6 c 10.6,-15 34.4,-27 53.4,-27 10.6,0 29,5.2 37.8,10.8 9.60001,6 27.40001,25.4 32.60001,35.4 2.2,4.4 4.6,7.8 5.4,7.8 0.8,0 3,-2.6 5,-5.8 1.8,-3.2 9.2,-11.8 16.4,-19.2 12.6,-13.2 12.8,-13.6 10,-18.8 -5.4,-10.6 -21,-27.8 -33.4,-37.2 -22,-16.6 -40.20001,-22.8 -69.60001,-24 -13.6,-0.4 -25,0.4 -32.6,2.2 m 192.80001,66 c -14.4,3.8 -31.2,13 -43.6,24 -10.2,8.8 -26.6,31 -26.6,35.8 0,1.2 5.2,3.4 11.6,4.8 6.2,1.4 15.4,4.4 20.2,6.4 4.8,2 9.4,3.8 10.4,3.8 0.8,0 4.8,-3.4 8.8,-7.6 10.8,-11.8 27.2,-19.2 44,-20 7.8,-0.4 17.8,0.2 22.2,1.4 19.2,5.2 42.2,27 50,47.4 3,7.6 4.2,9 7.6,7.8 2.4,-0.6 11.4,-3 20.2,-5.2 8.8,-2.2 17,-4.4 18.4,-4.8 3,-1 -2,-16.2 -11.4,-35 -9.6,-18.8 -32.6,-41.2 -52,-50.4 -8.2,-4 -19.8,-8.2 -25.6,-9.4 -14.4,-3 -41.2,-2.6 -54.2,1 m -305.60001,40.8 c -23.6,7 -44.8,22 -59.2,41.6 -7.4,10 -18.2,35.6 -16.2,38.6 0.6,1 4,1.8 7.4,1.8 3.6,0 12.8,2.4 20.4,5 7.8,2.8 14.2,5 14.2,5 0.2,0 3.2,-5.8 6.6,-13 5,-10 9,-15 17.4,-21 32,-23.8 72.8,-15.2 96.8,20.2 4.4,6.4 8,12.6 8,13.6 0,4 3.6,2.2 7,-3.4 1.8,-3 8.8,-10.6 15.6,-16.8 l 12.4,-11.4 -3.6,-6.8 c -11.8,-22 -35.4,-42.4 -59,-51.6 -16,-6.2 -50.2,-7.2 -67.8,-1.8 m 208.80001,60.4 c -40.40001,5.4 -72.00001,31.8 -83.20001,69.2 -4.4,14.2 -4,15.6 5.8,28.4 3,3.8 7.8,11.8 10.8,17.6 3,5.8 6,10.4 6.8,10 0.8,-0.4 4.8,-2 9,-3.6 l 7.4,-2.8 v -13.6 c 0,-8.8 1.4,-17.4 4.2,-24.6 10.2,-27.4 48.40001,-41.4 76.60001,-28 12.4,5.8 27.4,20.2 32.2,31.2 2.4,5 4.4,7.2 5.8,6 5,-3.8 20.8,-11.8 28.2,-14 4.4,-1.4 9.2,-2.8 10.6,-3.4 2,-0.6 1,-4 -3.8,-12.8 -21.2,-40 -68.2,-65.4 -110.4,-59.6 m 220,27.8 c -6.8,1.6 -16.4,5.2 -21.4,7.6 -10.2,5.4 -29.4,23 -34.6,31.8 l -3.4,6 7.4,2.4 c 4.2,1.4 13.8,5.6 21.4,9.6 9.2,4.8 14.4,6.6 16.2,5.2 1.2,-1 6.2,-4.6 10.8,-8.2 10.2,-7.8 26.4,-11.4 40.8,-9.6 12.2,1.8 18.8,4.8 32.8,15.2 12.2,9.2 23.6,29.6 25.6,46.4 1.8,14.4 -1.8,32.4 -9,44 l -6,9.6 9.2,3.8 c 5,2.2 9.8,4 10.6,4 0.8,0 5.6,2.6 10.8,6 5.2,3.2 10,6 10.4,6 0.4,0 4,-5.6 7.8,-12.6 10.4,-18.6 14,-33.2 14,-56.4 0,-33 -9.6,-56.4 -32.8,-80 -13,-13.4 -25,-21.2 -43,-28.2 -11.8,-4.6 -17.2,-5.6 -34.6,-5.6 -12.4,-0.2 -25.4,1 -33,3 m -545.40001,-0.8 c -53,6.4 -94.2,41.6 -107,91.2 -4,16.4 -3,43.2 2.6,58.2 2.4,6.6 5.2,12.8 6.2,13.8 1.2,1.2 5.8,-0.4 12,-4.4 5.6,-3.4 10.6,-6.2 11,-6.2 0.6,0 4.8,-1.8 9.8,-3.8 l 8.8,-3.8 -3,-11.8 c -2.4,-9.6 -2.4,-13.8 -0.6,-24.6 6.4,-34.2 32.4,-58.6 65.6,-61.4 l 12.2,-1.2 -3.8,-8.8 c -2,-5 -4.4,-15.2 -5,-22.8 -0.8,-7.6 -2,-14.2 -2.6,-14.4 -0.6,-0.4 -3.4,-0.4 -6.2,0 m 105,45.4 c -27.6,7.2 -46,18.6 -60.4,37.6 -8.2,10.6 -20.6,34.8 -20.6,40.2 0,1.8 4.4,3.8 11.6,5.4 6.2,1.4 16,4.6 21.4,7.2 l 10,4.6 6.6,-13 c 7.4,-14.8 15.2,-22.8 29.2,-30 26.8,-14.2 62,-4.2 81.2,22.8 4.4,6.2 9,14.6 10.4,18.8 2.6,9 4,9.4 8.8,2 1.8,-3 9,-11 15.6,-18 l 12,-12.6 -5.8,-11.4 c -11.4,-21.6 -38.8,-43.6 -64.4,-51.4 -13.8,-4.4 -43.4,-5.4 -55.6,-2.2 m 341.00001,37.4 c -5,1 -13,3.2 -18,5 -10.4,3.8 -30,16.4 -30,19 0,1 4.4,6 9.6,11.2 5.2,5.4 12.4,13.2 15.8,17.6 5.6,7.2 6.4,7.6 9.4,4.4 4.6,-4.4 21.8,-9.4 33.2,-9.4 27.8,0 54.6,24.6 59,54.2 0.8,4.8 1.6,9.2 2,9.8 1.8,3 -6,27.8 -11.8,36.8 -10,15.8 -22.6,25 -42.2,31.2 -4.4,1.4 -8.8,3.2 -9.6,4 -1,0.8 6.2,6.6 15.6,13 9.6,6.2 17.8,12.8 18.4,14.2 1.4,4 5.4,3.4 16.6,-2.2 20.4,-10.4 30.2,-18.8 41.6,-36 12.6,-19 16,-30 17.6,-55.2 1.4,-22.8 -1.4,-36.6 -12.4,-58.2 -21,-41.6 -71.4,-67.8 -114.8,-59.4"
       id="path2"
       style="stroke-width:0.999678;stroke-dasharray:none" />
    <path
       d="m 1425.3243,710.44739 c 0,3.4 -1.8,12.6 -3.8,20.2 l -4,13.8 10.8,6.2 c 24.4,14 42.8,45.6 40.4,69.2 -3.2,31.2 -27.8,57 -75.8,79.6 -31.6,15 -92.8,34.2 -122,38.4 -3.6,0.6 -18.2,3.2 -32.6,5.8 -27.6,5 -53.2,8.4 -76,10.2 -7.6,0.6 -16,1.4 -18.4,1.8 -2.4,0.4 -31,1.8 -63.6,3.2 -67.8,2.8 -147.40001,0.6 -215.60001,-6.2 -45,-4.4 -44.6,-4.4 -81.4,-11 -14.8,-2.6 -30,-5.4 -33.8,-6 -3.8,-0.6 -7.4,-1.4 -8,-1.8 -0.6,-0.4 -4.6,-1.4 -8.6,-2 -11.6,-1.8 -50.2,-12.6 -73.6,-20.6 -85.4,-29 -123.2,-62 -109.2,-95.6 3.8,-8.8 17.2,-23.2 26.2,-28.2 4.6,-2.4 6.8,-4.8 6.2,-6.8 -7.2,-22.6 -12.6,-36 -14.8,-36 -8.2,0 -37.4,20.6 -50.2,35.6 -4.6,5.2 -11.6,15.6 -15.6,23.4 -6.4,12.2 -7.4,16.2 -8.2,31 -1,20.8 2.6,34.8 13.4,51.4 51.6,79.2 230.8,132.60001 471,140.40001 102.60001,3.4 190.60001,-2 276.20001,-16.8 89,-15.40001 163.8,-43.20001 210,-77.80001 41,-31 59.8,-63.8 59.8,-105.2 0.2,-28.4 -8.6,-51.8 -28.6,-77 -15.2,-19 -45.8,-40 -64,-44 -6,-1.2 -6.2,-1 -6.2,4.8"
       id="path3"
       style="stroke-width:0.999678;stroke-dasharray:none" />
    <path
       d="m 994.92429,709.44739 c -24.6,5.6 -47.6,21.6 -62,44 -8.2,12.6 -9.4,17.2 -4.8,17.2 1.6,0 10,3.6 18.4,8 17.4,9 20,9.6 21.6,4.4 3.6,-11.2 29.8,-27.2 46.00001,-28.2 18.4,-1 42.8,11.4 54,27.6 16,23 14.8,57.4 -2.8,81.8 l -5.8,8 19,11.2 c 10.2,6.2 19.2,11.2 19.6,11.2 0.6,0 5,-6 9.8,-13.6 12.8,-19 18,-35.4 18.6,-57.4 0.6,-24.2 -1.6,-34.8 -11.4,-54.8 -22.6,-46 -71.4,-70 -120.20001,-59.4 m -303.6,36.6 c -9.2,1.6 -26.8,8.8 -36.2,14.8 -11.6,7.4 -27.4,23.8 -34.4,36 -9.8,16.6 -17.2,56.8 -10.8,58.6 1.2,0.4 10.6,3.4 20.8,6.8 10.2,3.2 18.8,5.4 19.4,4.8 0.8,-0.6 1.2,-4.8 1.2,-9.2 0.2,-26.4 15.4,-50.8 38.8,-62 8.4,-4.2 12.8,-4.8 25.2,-4.4 17.8,0.6 30.4,6.2 43.6,19.4 l 8.6,8.4 7.2,-8.6 c 4,-4.6 11.6,-11.8 17,-16 l 9.6,-7.6 -13.8,-12.8 c -14.2,-13.2 -33.2,-24 -48.4,-27.4 -8.6,-2 -37.8,-2.6 -47.8,-0.8 m 620.00001,37.2 c -0.2,0.2 -0.4,7.6 -0.8,16.4 -0.4,8.8 -1.4,18.4 -2.2,21.4 -1.2,4.6 -0.8,5.6 2,5.6 5.6,0 20.6,10 27,18 6.2,7.8 16.6,28.8 16.6,33.4 0,3.6 0,3.6 21,-4.6 20.6,-8.2 21,-8.6 15,-26 -7.6,-22.8 -29.4,-47.4 -49.8,-56 -6.8,-3 -28.6,-9 -28.8,-8.2 m -453.40001,10.2 c -31.8,8 -61.8,33.6 -73.6,62.8 -4.6,11.4 -10.2,39.8 -8.2,41.8 1.2,1.2 35.2,8.6 39.4,8.6 2.4,0 3.8,-2.4 4.8,-9.4 3.6,-24.4 17.2,-44.4 36,-53 15.2,-7 36.4,-6.4 50.6,1.4 5.8,3.2 13.4,8.8 16.6,12.4 8.8,10.2 17,28.2 18.4,40.4 0.8,6 2.2,11.8 3.2,12.8 1.4,1.4 9,1.4 21.6,0.2 l 19.6,-1.8 -0.6,-14.8 c -1.8,-43.4 -30.4,-83.4 -70,-98.2 -14.4,-5.4 -43,-7 -57.8,-3.2 m -319,190.6 c -25,42.20001 -37,67.40001 -49.8,104.40001 -19.8,58.4 -26.8,127 -18.6,186.2 13.6,98.6 65.2,192.6 155,282.6 15,15 17,31.6 8.4,69 -6,26.4 -6.8,46.4 -2,55.4 4,8 15,18.2 22,20.8 3.2,1.2 10.6,2.2 16.8,2.2 18,0 37,-10.4 58.4,-31.6 9.4,-9.6 20.2,-21.2 23.6,-25.8 6.2,-7.8 6.8,-8.2 14,-6.6 38.6,8.6 141.6,11.4 189.6,5.2 65.40001,-8.6 113.80001,-21.8 169.00001,-46.2 15.8,-7 40.4,-19.6 45,-23 1.2,-1 6.6,-4 12,-7 41.4,-23 95.8,-71 133.4,-118 49.4,-61.8 79.4,-138.2 84.8,-216 l 1.2,-18 -11,-17.6 c -20,-31.6 -29,-65.4 -26.8,-100 1.2,-17.8 7,-44.4 11.6,-52.2 2,-3.4 1.6,-3.6 -2.6,-2.4 -2.4,0.8 -6.8,1.8 -9.6,2.4 -5.8,1.2 -21,4.6 -27,6.2 -9,2.2 -61.2,10.6 -74,11.8 -18,1.8 -50.4,4.8 -61.4,5.8 -7.4,0.6 -15.4,1.6 -18,2.2 -9.2,2 -173.6,1.2 -208.60001,-1 -46.2,-3 -102,-8.4 -137,-13.2 -3.8,-0.6 -10.2,-1.4 -14,-2 -13.6,-1.6 -67.4,-12.8 -92,-19 -13.8,-3.6 -27.2,-6.8 -29.8,-7.2 -2.6,-0.6 -6.8,-2 -9,-3.2 -2.4,-1.2 -4.4,-2 -4.8,-1.8 -1,1 -45.4,-14.4 -67.4,-23.2 -12,-4.80001 -33.2,-14.60001 -46.8,-21.80001 -13.6,-7 -24.8,-12.8 -25,-12.8 -0.2,0 -4.4,7 -9.6,15.4 m 907.00001,7.4 c -19.6,18.80001 -19.6,18.80001 -14.2,20.80001 27.8,10.8 57.4,30.2 78.6,51.4 20.8,20.8 23.2,23.6 31.8,41.2 12.8,25.8 13.4,50.2 2,65.2 -7.6,10 -15.6,13.4 -32,13.4 -12,0 -16.2,-0.8 -27.6,-6.6 -16,-7.8 -33.4,-24 -44.8,-42 -9,-13.8 -16.4,-31.6 -16.4,-39.2 0,-8 -3.4,-5.8 -8.8,5.4 -8.4,17.6 -10,29.4 -6.4,46.2 4.4,19.6 12.8,33.6 31.2,51.4 26,25.6 51,36.2 83.6,35.4 17.4,-0.4 20.8,-1 32.8,-7 33,-16.2 51.6,-53.2 46.2,-91.8 -3.8,-26.2 -6,-33.2 -16.8,-54.8 -15.2,-30.4 -38.6,-56.8 -74,-83.20001 -13.6,-10.2 -39.2,-24.6 -43.6,-24.6 -1,0 -10.6,8.4 -21.6,18.8 m 110.6,306.60001 c -0.6,0.6 -1.2,2.6 -1.2,4.2 0,10.8 -42.2,104.8 -59,131.6 -20.6,32.6 -38.2,57.4 -51.8,72.8 -11.8,13.6 -39.2,41.6 -48.8,50 l -8.6,7.6 3.4,12.2 c 2,6.8 4.4,12.2 5.4,12.2 2.8,0 26,-20.4 44.2,-39 50.6,-51.6 89.8,-123 110.4,-201 8.8,-33.2 11.6,-56.2 6,-50.6 m -303.2,344.4 c -8.2,2.8 -15.4,5.4 -15.8,5.6 -0.4,0.2 3.4,5.6 8.6,12.2 24,31.2 50.4,45.6 90.4,49.6 8.6,0.8 14.8,0.4 15.4,-0.6 0.8,-1 -3.4,-4 -9.2,-6.6 -24.4,-10.8 -58.6,-40 -68.4,-58.6 -2.2,-4 -4.4,-7.2 -5,-7.2 -0.6,0.2 -7.8,2.6 -16,5.6 m -504.00001,61.4 c -10.2,10.4 -29.4,24.8 -40.4,30 -4.2,2 -7.6,4 -7.6,4.6 0,1.8 48.6,22.2 75.2,31.4 24,8.4 71,21.6 84.8,23.6 3.8,0.6 9.2,1.6 12,2.2 18.4,3.6 26,5 33,5.8 4.4,0.6 19.8,2.6 34,4.4 38.4,4.8 136.20001,5 175.00001,0.2 38,-4.6 82.2,-13.6 116.6,-23.6 26.4,-7.6 33.8,-10.4 69.4,-25.8 8.2,-3.4 16.6,-6.8 18.6,-7.4 6.4,-2 3.4,-3.8 -9.8,-6.4 -7.2,-1.2 -14.6,-3.2 -16.4,-4 -1.8,-1 -13,-6.4 -24.8,-12.2 -12,-5.8 -21.6,-11.2 -21.6,-12.2 0,-2.2 -8.8,-2.4 -10.8,-0.4 -1.4,1.6 -7.2,3.2 -38.2,11.8 -29.2,8.2 -29.6,8.2 -53,11.6 -38.4,5.8 -51.8,7.4 -69,8.8 -42.8,3 -120.40001,0.2 -154.00001,-5.6 -6.6,-1.2 -21.8,-3.8 -34,-5.8 -12,-2 -23.8,-4.2 -26,-4.8 -51.2,-13.6 -88.2,-25.8 -97.8,-32.6 -2.2,-1.4 -4.6,-2.8 -5.2,-2.8 -0.6,0 -5.2,4.2 -10,9.2"
       id="path4"
       style="stroke-width:0.999678;stroke-dasharray:none" />
  </g>
</svg>
