<svg width="24" height="24" viewBox="0 0 24 24" fill="none" xmlns="http://www.w3.org/2000/svg">
<rect width="24" height="24" rx="12" fill="white"/>
<g clip-path="url(#clip0_7261_70507)">
<path d="M12.0231 8.42784C10.0553 8.42784 8.45981 10.0268 8.45981 11.9989C8.45981 13.9709 10.0553 15.5699 12.0231 15.5699C13.9908 15.5699 15.5862 13.9709 15.5862 11.9989C15.5862 10.0268 13.9908 8.42784 12.0231 8.42784ZM12.0231 2C13.3673 2 14.6741 2.26515 15.9087 2.7883C17.0979 3.29182 18.1642 4.01227 19.0782 4.92824C19.9921 5.84421 20.711 6.91283 21.2134 8.10466C21.7354 9.34112 22 10.6517 22 11.9989C22 13.346 21.7354 14.6557 21.2134 15.893C20.711 17.0849 19.9921 18.1535 19.0782 19.0694C18.1642 19.9855 17.0979 20.7059 15.9087 21.2094C14.675 21.7325 13.3673 21.9977 12.0231 21.9977C10.6789 21.9977 9.37202 21.7325 8.13737 21.2094C6.94817 20.7059 5.88188 19.9855 4.96789 19.0694C4.05399 18.1535 3.33512 17.0849 2.83268 15.893C2.31071 14.6566 2.0461 13.346 2.0461 11.9989C2.0461 10.6517 2.31071 9.34202 2.83268 8.10466C3.33512 6.91283 4.05399 5.84421 4.96789 4.92824C5.88188 4.01227 6.94817 3.29182 8.13737 2.7883C9.37117 2.26515 10.6789 2 12.0231 2Z" fill="#B7F7B0"/>
<path d="M12.023 8.42783C10.0552 8.42783 8.45979 10.0268 8.45979 11.9989C8.45979 13.9709 10.0552 15.5699 12.023 15.5699C13.9907 15.5699 15.5862 13.9709 15.5862 11.9989C15.5862 10.0268 13.9907 8.42783 12.023 8.42783ZM12.023 4.14261C16.3451 4.14261 19.862 7.6672 19.862 11.9989C19.862 16.3305 16.3451 19.8551 12.023 19.8551C7.70083 19.8551 4.18393 16.3305 4.18393 11.9989C4.18393 7.6672 7.70083 4.14261 12.023 4.14261Z" fill="#07DC10"/>
<path d="M12.0229 8.42783C10.0551 8.42783 8.45969 10.0268 8.45969 11.9989C8.45969 13.9709 10.0551 15.5699 12.0229 15.5699C13.9907 15.5699 15.5861 13.9709 15.5861 11.9989C15.5861 10.0268 13.9907 8.42783 12.0229 8.42783ZM12.0229 6.28522C15.1665 6.28522 17.724 8.84832 17.724 11.9989C17.724 15.1493 15.1665 17.7125 12.0229 17.7125C8.87922 17.7125 6.32175 15.1493 6.32175 11.9989C6.32175 8.84832 8.87922 6.28522 12.0229 6.28522Z" fill="#0C9B00"/>
<path d="M12.0232 8.42783C10.0554 8.42783 8.46001 10.0268 8.46001 11.9989C8.46001 13.9709 10.0554 15.5699 12.0232 15.5699C13.991 15.5699 15.5864 13.9709 15.5864 11.9989C15.5864 10.0268 13.991 8.42783 12.0232 8.42783Z" fill="#EAEAEA"/>
</g>
<defs>
<clipPath id="clip0_7261_70507">
<rect width="20" height="20" fill="white" transform="matrix(-1 0 0 1 22 2)"/>
</clipPath>
</defs>
</svg>
